<svg width="34" height="14" viewBox="0 0 34 14" fill="none" xmlns="http://www.w3.org/2000/svg">
<path d="M32.9375 4.67168H31.45C30.6 2.15541 28.2625 0.47789 25.5 0.47789C22.7375 0.47789 20.4 2.3651 19.55 4.88137C18.9125 4.04261 18.0625 3.62324 17 3.62324C15.9375 3.62324 15.0875 4.04261 14.45 4.88137C13.6 2.3651 11.2625 0.47789 8.5 0.47789C5.7375 0.47789 3.4 2.3651 2.55 4.67168H1.0625C0.425 4.67168 0 5.09106 0 5.72013C0 6.3492 0.425 6.76858 1.0625 6.76858H2.125C2.125 10.3333 4.8875 13.0593 8.5 13.0593C11.6875 13.0593 14.2375 10.7527 14.875 7.81703C15.5125 7.81703 15.9375 7.39765 15.9375 6.76858C15.9375 6.13951 16.3625 5.72013 17 5.72013C17.6375 5.72013 18.0625 6.13951 18.0625 6.76858C18.0625 7.39765 18.4875 7.81703 19.125 7.81703C19.55 10.7527 22.3125 13.0593 25.5 13.0593C29.1125 13.0593 31.875 10.3333 31.875 6.76858H32.9375C33.575 6.76858 34 6.3492 34 5.72013C34 5.09106 33.575 4.67168 32.9375 4.67168ZM8.5 10.9624C6.1625 10.9624 4.25 9.07517 4.25 6.76858C4.25 4.46199 6.1625 2.57479 8.5 2.57479C10.8375 2.57479 12.75 4.46199 12.75 6.76858C12.75 9.07517 10.8375 10.9624 8.5 10.9624ZM25.5 10.9624C23.1625 10.9624 21.25 9.07517 21.25 6.76858C21.25 4.46199 23.1625 2.57479 25.5 2.57479C27.8375 2.57479 29.75 4.46199 29.75 6.76858C29.75 9.07517 27.8375 10.9624 25.5 10.9624Z" fill="black"/>
</svg>
