<svg width="17" height="71" viewBox="0 0 17 71" fill="none" xmlns="http://www.w3.org/2000/svg">
<path d="M0.130639 2.12285C0.0598261 0.972139 0.973978 0 2.12686 0H14.2911C15.4319 0 16.3416 0.952656 16.289 2.09221L14.0158 51.3452C13.9665 52.4128 13.0866 53.253 12.0179 53.253H5.15782C4.10095 53.253 3.22651 52.4307 3.16159 51.3759L0.130639 2.12285Z" fill="#FCBF23"/>
<path d="M14.747 64.0361C14.747 67.4297 11.996 70.1807 8.60241 70.1807C5.20886 70.1807 2.45783 67.4297 2.45783 64.0361C2.45783 60.6426 5.20886 57.8916 8.60241 57.8916C11.996 57.8916 14.747 60.6426 14.747 64.0361Z" fill="#FCBF23"/>
</svg>
